<?xml version="1.0" encoding="utf-8"?>
<!-- Generated by IcoMoon.io -->
<!DOCTYPE svg PUBLIC "-//W3C//DTD SVG 1.1//EN" "http://www.w3.org/Graphics/SVG/1.1/DTD/svg11.dtd">
<svg version="1.1" xmlns="http://www.w3.org/2000/svg" xmlns:xlink="http://www.w3.org/1999/xlink" width="16" height="16" viewBox="0 0 16 16">
<path fill="#000000" d="M 426.672,480L 85.342,480 C 38.406,480,0,441.593,0,394.656l0-341.313 C0,6.374, 38.406-32, 85.342-32l 341.33,0.001
	c 46.938,0, 85.328,38.373, 85.328,85.344L 512,394.656 C 512,441.593, 473.609,480, 426.672,480z M 435.296,224L 352,224 l0-224 l-96,0 L 256,224 l-46.263,0 l0,73.282 L 256,297.282 
	l0,47.593 C 256,409.546, 283.896,448, 359.935,448l 87.622,0 l0-79.285 l-71.565,0 c-21.241,0.035-23.876-11.076-23.876-31.756L 352,297.282l 96,0 
	L 435.296,224z"></path>
</svg>
